<svg width="17" height="17" viewBox="0 0 17 17" fill="none" xmlns="http://www.w3.org/2000/svg">
<path d="M4.49992 13.1667C4.49992 13.9 5.09992 14.5 5.83325 14.5H11.1666C11.8999 14.5 12.4999 13.9 12.4999 13.1667V6.5C12.4999 5.76667 11.8999 5.16667 11.1666 5.16667H5.83325C5.09992 5.16667 4.49992 5.76667 4.49992 6.5V13.1667ZM6.49992 6.5H10.4999C10.8666 6.5 11.1666 6.8 11.1666 7.16667V12.5C11.1666 12.8667 10.8666 13.1667 10.4999 13.1667H6.49992C6.13325 13.1667 5.83325 12.8667 5.83325 12.5V7.16667C5.83325 6.8 6.13325 6.5 6.49992 6.5ZM10.8333 3.16667L10.3599 2.69333C10.2399 2.57333 10.0666 2.5 9.89325 2.5H7.10659C6.93325 2.5 6.75992 2.57333 6.63992 2.69333L6.16659 3.16667H4.49992C4.13325 3.16667 3.83325 3.46667 3.83325 3.83333C3.83325 4.2 4.13325 4.5 4.49992 4.5H12.4999C12.8666 4.5 13.1666 4.2 13.1666 3.83333C13.1666 3.46667 12.8666 3.16667 12.4999 3.16667H10.8333Z" fill="#2A2A2A"/>
</svg>
