<svg width="17" height="17" viewBox="0 0 17 17" fill="none" xmlns="http://www.w3.org/2000/svg">
<path d="M9.83341 11.6667H4.50008C4.01385 11.6667 3.54754 11.4735 3.20372 11.1297C2.8599 10.7859 2.66675 10.3196 2.66675 9.83334V4.50001C2.66675 4.01377 2.8599 3.54746 3.20372 3.20364C3.54754 2.85983 4.01385 2.66667 4.50008 2.66667H9.83341C10.3196 2.66667 10.786 2.85983 11.1298 3.20364C11.4736 3.54746 11.6667 4.01377 11.6667 4.50001V9.83334C11.6667 10.3196 11.4736 10.7859 11.1298 11.1297C10.786 11.4735 10.3196 11.6667 9.83341 11.6667ZM4.50008 3.66667C4.27907 3.66667 4.06711 3.75447 3.91083 3.91075C3.75455 4.06703 3.66675 4.27899 3.66675 4.50001V9.83334C3.66675 10.0544 3.75455 10.2663 3.91083 10.4226C4.06711 10.5789 4.27907 10.6667 4.50008 10.6667H9.83341C10.0544 10.6667 10.2664 10.5789 10.4227 10.4226C10.579 10.2663 10.6667 10.0544 10.6667 9.83334V4.50001C10.6667 4.27899 10.579 4.06703 10.4227 3.91075C10.2664 3.75447 10.0544 3.66667 9.83341 3.66667H4.50008Z" fill="#2A2A2A"/>
<path d="M12.4999 14.3333H7.16659C6.68036 14.3333 6.21404 14.1402 5.87022 13.7964C5.52641 13.4525 5.33325 12.9862 5.33325 12.5V11.1667H6.33325V12.5C6.33325 12.721 6.42105 12.933 6.57733 13.0893C6.73361 13.2455 6.94557 13.3333 7.16659 13.3333H12.4999C12.7209 13.3333 12.9329 13.2455 13.0892 13.0893C13.2455 12.933 13.3333 12.721 13.3333 12.5V7.16666C13.3333 6.94565 13.2455 6.73369 13.0892 6.57741C12.9329 6.42113 12.7209 6.33333 12.4999 6.33333H11.1666V5.33333H12.4999C12.9861 5.33333 13.4525 5.52648 13.7963 5.8703C14.1401 6.21412 14.3333 6.68043 14.3333 7.16666V12.5C14.3333 12.9862 14.1401 13.4525 13.7963 13.7964C13.4525 14.1402 12.9861 14.3333 12.4999 14.3333Z" fill="#2A2A2A"/>
</svg>
