<svg viewBox="0 0 24 24" fill="none" xmlns="http://www.w3.org/2000/svg">
<path fill-rule="evenodd" clip-rule="evenodd" d="M2.32002 1.52002C2.10785 1.52002 1.90436 1.60431 1.75433 1.75434C1.60431 1.90436 1.52002 2.10785 1.52002 2.32002V5.52002C1.52002 5.73219 1.60431 5.93568 1.75433 6.08571C1.90436 6.23574 2.10785 6.32002 2.32002 6.32002C2.53219 6.32002 2.73568 6.23574 2.88571 6.08571C3.03573 5.93568 3.12002 5.73219 3.12002 5.52002V3.12002H5.52002C5.73219 3.12002 5.93568 3.03574 6.08571 2.88571C6.23573 2.73568 6.32002 2.53219 6.32002 2.32002C6.32002 2.10785 6.23573 1.90436 6.08571 1.75434C5.93568 1.60431 5.73219 1.52002 5.52002 1.52002H2.32002ZM9.52002 1.52002C9.30785 1.52002 9.10436 1.60431 8.95433 1.75434C8.80431 1.90436 8.72002 2.10785 8.72002 2.32002C8.72002 2.53219 8.80431 2.73568 8.95433 2.88571C9.10436 3.03574 9.30785 3.12002 9.52002 3.12002H14.32C14.5322 3.12002 14.7357 3.03574 14.8857 2.88571C15.0357 2.73568 15.12 2.53219 15.12 2.32002C15.12 2.10785 15.0357 1.90436 14.8857 1.75434C14.7357 1.60431 14.5322 1.52002 14.32 1.52002H9.52002ZM8.72002 21.52C8.72002 21.3078 8.80431 21.1044 8.95433 20.9543C9.10436 20.8043 9.30785 20.72 9.52002 20.72H14.32C14.5322 20.72 14.7357 20.8043 14.8857 20.9543C15.0357 21.1044 15.12 21.3078 15.12 21.52C15.12 21.7322 15.0357 21.9357 14.8857 22.0857C14.7357 22.2357 14.5322 22.32 14.32 22.32H9.52002C9.30785 22.32 9.10436 22.2357 8.95433 22.0857C8.80431 21.9357 8.72002 21.7322 8.72002 21.52ZM3.12002 9.52002C3.12002 9.30785 3.03573 9.10437 2.88571 8.95434C2.73568 8.80431 2.53219 8.72002 2.32002 8.72002C2.10785 8.72002 1.90436 8.80431 1.75433 8.95434C1.60431 9.10437 1.52002 9.30785 1.52002 9.52002V14.32C1.52002 14.5322 1.60431 14.7357 1.75433 14.8857C1.90436 15.0357 2.10785 15.12 2.32002 15.12C2.53219 15.12 2.73568 15.0357 2.88571 14.8857C3.03573 14.7357 3.12002 14.5322 3.12002 14.32V9.52002ZM21.52 8.72002C21.7322 8.72002 21.9357 8.80431 22.0857 8.95434C22.2357 9.10437 22.32 9.30785 22.32 9.52002V14.32C22.32 14.5322 22.2357 14.7357 22.0857 14.8857C21.9357 15.0357 21.7322 15.12 21.52 15.12C21.3078 15.12 21.1044 15.0357 20.9543 14.8857C20.8043 14.7357 20.72 14.5322 20.72 14.32V9.52002C20.72 9.30785 20.8043 9.10437 20.9543 8.95434C21.1044 8.80431 21.3078 8.72002 21.52 8.72002ZM18.32 1.52002C18.1078 1.52002 17.9044 1.60431 17.7543 1.75434C17.6043 1.90436 17.52 2.10785 17.52 2.32002C17.52 2.53219 17.6043 2.73568 17.7543 2.88571C17.9044 3.03574 18.1078 3.12002 18.32 3.12002H20.72V5.52002C20.72 5.73219 20.8043 5.93568 20.9543 6.08571C21.1044 6.23574 21.3078 6.32002 21.52 6.32002C21.7322 6.32002 21.9357 6.23574 22.0857 6.08571C22.2357 5.93568 22.32 5.73219 22.32 5.52002V2.32002C22.32 2.21483 22.2993 2.11067 22.259 2.0135C22.2187 1.91634 22.1596 1.82808 22.0851 1.75377C22.0107 1.67946 21.9223 1.62057 21.8251 1.58046C21.7278 1.54035 21.6236 1.51981 21.5184 1.52002H18.32ZM2.32002 17.52C2.53219 17.52 2.73568 17.6043 2.88571 17.7543C3.03573 17.9044 3.12002 18.1078 3.12002 18.32V20.72H5.52002C5.73219 20.72 5.93568 20.8043 6.08571 20.9543C6.23573 21.1044 6.32002 21.3078 6.32002 21.52C6.32002 21.7322 6.23573 21.9357 6.08571 22.0857C5.93568 22.2357 5.73219 22.32 5.52002 22.32H2.32002C2.10785 22.32 1.90436 22.2357 1.75433 22.0857C1.60431 21.9357 1.52002 21.7322 1.52002 21.52V18.32C1.52002 18.1078 1.60431 17.9044 1.75433 17.7543C1.90436 17.6043 2.10785 17.52 2.32002 17.52ZM22.32 18.32C22.32 18.1078 22.2357 17.9044 22.0857 17.7543C21.9357 17.6043 21.7322 17.52 21.52 17.52C21.3078 17.52 21.1044 17.6043 20.9543 17.7543C20.8043 17.9044 20.72 18.1078 20.72 18.32V20.72H18.32C18.1078 20.72 17.9044 20.8043 17.7543 20.9543C17.6043 21.1044 17.52 21.3078 17.52 21.52C17.52 21.7322 17.6043 21.9357 17.7543 22.0857C17.9044 22.2357 18.1078 22.32 18.32 22.32H21.52C21.7322 22.32 21.9357 22.2357 22.0857 22.0857C22.2357 21.9357 22.32 21.7322 22.32 21.52V18.32Z" fill="#2A2A2A"/>
</svg>
