<svg width="16" height="16" viewBox="0 0 16 16" fill="none" xmlns="http://www.w3.org/2000/svg">
<path d="M14.541 5.85892L10.141 1.45892C10.0249 1.34285 9.87316 1.28571 9.72137 1.28571C9.56959 1.28571 9.4178 1.34285 9.30173 1.45892L6.42494 4.33749C6.20709 4.31249 5.98744 4.30178 5.7678 4.30178C4.46066 4.30178 3.15351 4.73213 2.0803 5.59285C1.8053 5.81249 1.78387 6.22499 2.03209 6.47499L5.27673 9.71963L1.4303 13.5625C1.38317 13.6093 1.35408 13.6713 1.34816 13.7375L1.28744 14.4018C1.27137 14.5696 1.4053 14.7125 1.57137 14.7125C1.5803 14.7125 1.58923 14.7125 1.59816 14.7107L2.26244 14.65C2.32851 14.6446 2.39101 14.6143 2.43744 14.5678L6.28387 10.7214L9.52851 13.9661C9.64459 14.0821 9.79637 14.1393 9.94816 14.1393C10.1214 14.1393 10.2928 14.0643 10.4107 13.9178C11.416 12.6625 11.8339 11.0911 11.6642 9.57142L14.541 6.69463C14.7714 6.46606 14.7714 6.09106 14.541 5.85892Z" fill="currentColor"/>
</svg>
